<svg width="512.01" height="512.01" version="1.1" viewBox="0 0 135.47 135.47" xmlns="http://www.w3.org/2000/svg">
 <g transform="translate(-2.6974e-6 -1.8882e-5)">
  <rect transform="rotate(135)" x="-47.895" y="-143.68" width="95.789" height="95.789" fill="#1b2330" fill-rule="evenodd" stroke-width=".15965"/>
  <path d="m38.947 96.52 57.573-57.573" fill="none" stroke="#fff" stroke-width=".32709"/>
  <g transform="matrix(1.024 0 0 1.024 6.2166e-7 3.0191e-6)" stroke-width=".25984" aria-label="K">
   <path d="m42.346 62.632v-24.723h3.048v10.634h3.6576l5.4864-10.634h3.3189l-6.1299 11.921 6.4685 12.802h-3.4883l-5.7573-11.413h-3.556v11.413z" fill="#fff"/>
  </g>
  <g transform="matrix(1.024 0 0 1.024 6.2166e-7 3.0191e-6)" stroke-width=".25984" aria-label="M">
   <path d="m74.438 94.161v-24.28h4.4236l3.0932 10.51 3.2262-10.51h4.4236v24.28h-2.8936v-11.475q0-1.6298 0.03326-3.7251 0.06652-2.1287 0.1663-4.2906 0.09978-2.1619 0.23282-3.8914l-3.9247 12.539h-2.5943l-3.7584-12.24q0.26608 2.4613 0.36586 5.3882 0.09978 2.9269 0.09978 6.2197v11.475z" fill="#fff"/>
  </g>
 </g>
</svg>